<svg xmlns="http://www.w3.org/2000/svg" width="50" height="50" viewBox="-3 -3 22 22"><path d="M14.54.5c-1.477.692-2.52 2.276-3.073 3.31-.982-.82-2.177-1.31-3.474-1.31h-.011c-1.29.002-2.476.49-3.454 1.3C3.972 2.77 2.93 1.19 1.458.5c0 0-1.38 3.405.7 7.427a8.045 8.045 0 0 0-.17 1.592c0 3.876 2.688 5.98 6.005 5.98C11.31 15.5 14 13.394 14 9.52c0-.546-.065-1.07-.166-1.58C15.922 3.913 14.54.5 14.54.5zM1.998 2.062c.85.722 1.467 1.734 1.826 2.42a7.12 7.12 0 0 0-1.266 2.095C1.8 4.71 1.835 3.08 1.997 2.062zM7.993 14.5c-2.765 0-5.006-1.65-5.006-4.978 0-2.887 1.69-5.293 3.942-5.88.518.44 1.055 1.078 1.055 1.857 0-.782.542-1.423 1.062-1.862C11.305 4.22 13 6.63 13 9.522c0 3.327-2.24 4.977-5.007 4.977zm4.18-10.01c.357-.687.977-1.704 1.83-2.428.16 1.02.198 2.657-.566 4.528a7.13 7.13 0 0 0-1.265-2.1zM6.142 11s.69 2 1.97 2c1.278 0 1.967-2 1.967-2s-.972-.5-1.968-.5c-.973 0-1.97.5-1.97.5z"/></svg>