<svg xmlns="http://www.w3.org/2000/svg" width="50" height="50" viewBox="-3 -3 23 22"><path d="M8.256 7.104l-.624.625a.44.44 0 0 0 .624.624l.624-.625a.44.44 0 1 0-.624-.625zM3 5.98a.5.5 0 0 0 .502-.5v-1a.5.5 0 0 0-1.002 0v1a.5.5 0 0 0 .5.5zm2.187 3.64l-3.38 3.377h-.81c-.277 0-.5.226-.5.502v1a.5.5 0 0 0 .5.502H2a.5.5 0 0 0 .5-.5v-.843l3.364-3.365a.477.477 0 1 0-.677-.676zm5.832 2.375h-1.003a.5.5 0 0 0 0 1.002h1.002a.5.5 0 0 0 0-1.002zM2.5.995V2a11.51 11.51 0 0 1 11 11h1.002A12.51 12.51 0 0 0 2.5.995z"/></svg>